<svg width="1305" height="172" viewBox="0 0 1305 172" fill="none" xmlns="http://www.w3.org/2000/svg">
<path d="M1216.94 167.018H1182.02V47.5416H1216.94V90.8517H1225.67C1242.89 90.8517 1248.87 87.8648 1259.6 62.725L1266.08 47.5416H1300.26V50.2796L1290.78 73.677C1285.04 87.8648 1277.81 98.8167 1269.08 105.786L1304 164.28V167.018H1267.33L1238.15 118.232H1216.94V167.018Z" fill="#FFFFFF"/>
<path d="M1038.54 47.5416H1073.46V88.3626H1117.12V47.5416H1152.04V167.018H1117.12V118.729H1073.46V167.018H1038.54V47.5416Z" fill="#FFFFFF"/>
<path d="M897.258 49.2839C911.976 45.7991 929.188 44.8035 940.163 44.8035C992.547 44.8035 1006.52 67.952 1006.02 93.3407V141.38L1018.49 141.629V166.52C1013 168.013 1007.01 169.258 1001.03 169.258C986.311 169.258 978.827 161.542 977.081 152.083H974.836C965.856 164.528 949.892 170.004 934.426 170.004C910.479 170.004 888.278 157.061 888.278 129.681C888.278 98.8166 916.715 90.8516 944.903 90.8516H973.589C973.09 76.166 955.878 70.9389 936.671 70.9389C925.196 70.9389 910.978 72.9302 900.751 76.9127L897.258 49.2839ZM923.201 129.681C923.201 140.384 930.435 144.616 942.159 144.616C961.117 144.616 973.589 133.913 973.589 113.502L951.388 113.253C930.684 113.253 923.201 118.729 923.201 129.681Z" fill="#FFFFFF"/>
<path d="M819.575 33.8515C786.898 36.5895 769.187 47.7904 766.194 77.1616H768.938C778.417 60.7337 795.13 51.524 816.832 51.524C846.266 51.524 874.454 69.4455 874.454 111.013C874.454 150.59 846.516 170.751 807.353 170.751C762.203 170.751 738.006 141.38 738.006 89.8559C738.006 52.5197 749.98 9.20962 819.575 3.48472L861.482 0L861.981 30.3668L819.575 33.8515ZM808.101 141.38C829.803 141.38 838.533 128.686 838.533 111.013C838.533 91.8472 828.805 80.6463 808.849 80.6463C789.891 80.6463 779.165 91.1005 774.176 100.808C774.176 124.703 782.907 141.38 808.101 141.38Z" fill="#FFFFFF"/>
<path d="M556.706 49.2839C571.423 45.7991 588.635 44.8035 599.611 44.8035C651.994 44.8035 665.963 67.952 665.464 93.3407V141.38L677.937 141.629V166.52C672.449 168.013 666.462 169.258 660.475 169.258C645.758 169.258 638.275 161.542 636.529 152.083H634.284C625.304 164.528 609.339 170.004 593.873 170.004C569.926 170.004 547.726 157.061 547.726 129.681C547.726 98.8166 576.163 90.8516 604.35 90.8516H633.036C632.537 76.166 615.326 70.9389 596.118 70.9389C584.644 70.9389 570.425 72.9302 560.198 76.9127L556.706 49.2839ZM582.648 129.681C582.648 140.384 589.882 144.616 601.606 144.616C620.564 144.616 633.036 133.913 633.036 113.502L610.836 113.253C590.132 113.253 582.648 118.729 582.648 129.681Z" fill="#FFFFFF"/>
<path d="M451.796 167.018H416.874V47.5416H451.796V90.8517H460.527C477.738 90.8517 483.725 87.8648 494.451 62.725L500.937 47.5416H535.111V50.2796L525.632 73.677C519.895 87.8648 512.661 98.8167 503.93 105.786L538.853 164.28V167.018H502.184L472.999 118.232H451.796V167.018Z" fill="#FFFFFF"/>
<path d="M352.055 47.5416H386.977V167.018H352.055V124.205C342.576 128.188 331.6 130.677 320.375 130.677C293.934 130.677 272.731 116.987 272.731 83.1355V47.5416H307.653V83.3844C307.653 94.3364 314.638 103.546 329.854 103.546C336.839 103.546 345.07 101.555 352.055 98.5678V47.5416Z" fill="#FFFFFF"/>
<path d="M190.755 171C154.086 171 123.404 147.105 123.404 107.279C123.404 67.4541 154.086 43.5589 190.755 43.5589C227.174 43.5589 257.856 67.4541 257.856 107.279C257.856 147.105 227.174 171 190.755 171ZM190.755 141.629C210.461 141.629 221.935 126.943 221.935 107.279C221.935 87.6157 210.461 72.9301 190.755 72.9301C170.799 72.9301 159.324 87.6157 159.324 107.279C159.324 126.943 170.799 141.629 190.755 141.629Z" fill="#FFFFFF"/>
<path d="M114.747 47.5416V78.4063H75.335V167.018H40.4125V78.4063H1V47.5416H114.747Z" fill="#FFFFFF"/>
</svg>
